<?xml version="1.0" encoding="UTF-8"?>
<svg id="Layer_1" data-name="Layer 1" xmlns="http://www.w3.org/2000/svg" viewBox="0 0 648 648">
  <defs>
    <style>
      .cls-1 {
        stroke: #000;
        stroke-width: .76px;
      }

      .cls-1, .cls-2, .cls-3, .cls-4, .cls-5, .cls-6, .cls-7 {
        fill: none;
      }

      .cls-1, .cls-8, .cls-3, .cls-4, .cls-9, .cls-7 {
        stroke-miterlimit: 10;
      }

      .cls-10 {
        stroke-width: 2.56px;
      }

      .cls-10, .cls-2, .cls-8, .cls-3, .cls-4, .cls-9, .cls-5, .cls-6, .cls-7 {
        stroke: #231f20;
      }

      .cls-10, .cls-2, .cls-5, .cls-6 {
        stroke-linejoin: round;
      }

      .cls-10, .cls-8, .cls-11 {
        fill: #fff;
      }

      .cls-10, .cls-3, .cls-4, .cls-6, .cls-7 {
        stroke-linecap: round;
      }

      .cls-2 {
        stroke-width: 1.75px;
      }

      .cls-8 {
        stroke-width: 2.94px;
      }

      .cls-3 {
        stroke-width: .86px;
      }

      .cls-9 {
        stroke-width: .25px;
      }

      .cls-5 {
        stroke-width: 1.84px;
      }

      .cls-6 {
        stroke-width: 1.77px;
      }

      .cls-12, .cls-13, .cls-14, .cls-11, .cls-15, .cls-16 {
        stroke-width: 0px;
      }

      .cls-7 {
        stroke-width: 1.17px;
      }

      .cls-13 {
        fill: #4cb548;
      }

      .cls-14 {
        fill: #231f20;
      }

      .cls-15 {
        fill: #030303;
      }

      .cls-16 {
        fill: #020202;
      }
    </style>
  </defs>
  <g>
    <path class="cls-9" d="M184.31,222.23c-.69-1.34-1.39-2.68-2.08-4.03-.17-.34-.33-.69-.48-1.04-.12-.28-.04-.39.27-.47.3-.08.61-.16.88-.29.46-.23.66-.61.62-1.11-.05-.69-.67-1.41-1.36-1.61-.51-.15-.96-.04-1.37.27-.36.28-.48.26-.68-.15-.3-.61-.61-1.21-.91-1.82-.06-.13-.09-.3-.07-.44.31-2.07,1.24-3.89,2.52-5.55,1.74-2.24,3.68-4.31,5.99-6.03.79-.59,1.71-1.03,2.59-1.53.12-.07.32-.07.47-.04,5.11,1.18,10.22,2.38,15.33,3.57,1.94.45,3.85.98,5.69,1.75.26.11.39.26.52.48,1,1.76,2.01,3.52,3.01,5.27.21.37.17.42-.23.6-.36.16-.73.32-1.04.54-1.08.8-.91,2.28.31,2.89.76.38,1.53.32,2.29-.02.14-.06.26-.15.4-.22.2-.11.37-.09.49.12.84,1.44,1.68,2.87,2.51,4.31.13.23.04.37-.27.46-.61.17-1.23.35-1.84.5-4.42,1.07-8.83,2.13-13.25,3.18-3.71.88-7.42,1.76-11.15,2.6-2.17.49-4.36.89-6.55,1.33-.31.06-.5,0-.66-.29-.62-1.1-1.26-2.18-1.9-3.26-.02,0-.03.02-.05.02h0ZM217.06,213.85c-.68.38-1.39.56-2.15.43s-1.39-.49-1.83-1.11c-.34-.48-.45-1.01-.36-1.58.16-1.09,1.05-1.54,1.98-1.97-.08-.14-.14-.24-.2-.34-.89-1.53-1.78-3.06-2.65-4.6-.12-.21-.2-.27-.46-.2-2.74.67-5.48,1.34-8.23,1.99-.94.22-1.9.37-2.86.55-.06.48-.32.86-.69,1.17-1.07.87-2.31,1.18-3.69.98-.45-.06-.89-.21-1.18-.55-.17-.19-.3-.18-.52-.13-4.09.98-8.19,1.96-12.28,2.94-.69.17-1.39.34-2.1.52.25.52.49,1.01.73,1.49,1.52-.6,2.64-.24,3.31,1.04.24.46.31.94.16,1.44-.24.77-.9,1.08-1.63,1.31.03.09.04.15.07.21.43.87.84,1.75,1.31,2.6.92,1.66,1.88,3.29,2.81,4.95.12.22.25.25.48.2,1.94-.4,3.9-.74,5.84-1.18,4.34-.99,8.68-2.01,13.01-3.03,3.86-.91,7.72-1.85,11.57-2.78.6-.14,1.19-.32,1.8-.48-.75-1.29-1.49-2.54-2.24-3.83v-.04ZM210.93,204.02c-.14-.07-.22-.11-.3-.14-.81-.27-1.6-.58-2.43-.79-1.64-.42-3.3-.78-4.95-1.17-4.14-.97-8.28-1.93-12.42-2.91-.27-.06-.5-.06-.72.08-.87.55-1.8,1.04-2.6,1.67-1.87,1.48-3.5,3.2-4.99,5.03-1.25,1.54-2.25,3.21-2.7,5.13-.03.13-.05.26-.08.42,4.88-1.17,9.71-2.32,14.53-3.48-.04-.83.11-1.29.72-1.79,1.13-.93,2.45-1.21,3.9-.84.53.14.94.46,1.17.95.1.22.22.23.44.2,2.86-.49,5.68-1.14,8.48-1.86.62-.16,1.25-.33,1.93-.52l.02.02ZM198.66,208.14c.1-.06.27-.16.42-.27.59-.43.76-.88.52-1.4-.22-.47-.63-.71-1.14-.79-1.07-.16-2.06.05-2.93.68-.56.41-.8.99-.62,1.47.21.59.74.73,1.31.79.84.09,1.64-.07,2.45-.49h-.01Z"/>
    <path class="cls-9" d="M202.36,213.49c.93-.44,2.23-.64,3.54.03,1.24.64,1.69,1.75,1.65,3.03-.04,1.2-.71,2.04-1.85,2.51-1.33.56-2.68.58-4.02.04-1.77-.72-2.3-2.29-1.34-3.88.4-.67.96-1.19,2.02-1.74h0ZM206.68,215.07c-.39-.69-.87-1.06-1.5-1.26-1.94-.6-4.23.63-4.68,2.53-.17.7.02,1.3.6,1.79.46.39,1,.59,1.59.7.91.18,1.8.13,2.66-.21,1.87-.74,1.9-2.44,1.33-3.55h0Z"/>
    <path class="cls-9" d="M187.12,212.21c1.05-.51,2.28-.43,3.51.04.64.24,1.22.59,1.67,1.1.79.89.76,2.12-.02,3.08-1.5,1.82-5.3,1.94-6.6-.68-.63-1.26-.11-2.7,1.44-3.54h0ZM190.98,216.81c.25-.21.53-.39.75-.63.75-.8.77-1.81.08-2.55-.79-.86-2.83-1.6-4.32-.97-1.34.56-2.01,2-1,3.31.98,1.26,2.95,1.63,4.5.85h0Z"/>
    <path class="cls-9" d="M193.67,218.8c1-.54,2.63-.25,3.36.59.47.55.49,1.26.04,1.85-.8,1.06-2.53,1.3-3.61.5-1.12-.83-1.02-2.28.21-2.94ZM196.04,221.41c.1-.06.21-.12.3-.2.61-.49.64-1.2.05-1.64-.62-.45-1.33-.62-2.1-.43-.56.14-.98.57-1.05,1.05-.06.45.25.97.75,1.23.68.35,1.37.29,2.04-.02h.01Z"/>
    <path class="cls-9" d="M208.49,210.68c-1.07.52-2.38.36-3.11-.41-1.05-1.09-.42-2.4.71-2.82,1.03-.38,2.01-.17,2.87.47.78.58.83,1.5.17,2.23-.18.2-.42.35-.64.53ZM208.25,210.22c.2-.2.43-.38.58-.61.3-.44.24-.9-.19-1.22-.71-.55-1.52-.74-2.39-.4-.94.36-1.1,1.35-.36,2,.57.5,1.56.58,2.35.23h0Z"/>
    <path class="cls-9" d="M189.13,201.36c.28-.09.55-.21.83-.27,1.24-.26,2.1.59,1.82,1.77-.28,1.17-1.84,1.98-3.03,1.57-.93-.32-1.23-1.24-.7-2.1.23-.36.54-.63,1.08-.98h0ZM190.35,203.76c.47-.29.82-.67.89-1.23.06-.49-.23-.87-.69-.93-.75-.1-1.88.58-2.11,1.26-.2.58.08,1,.7,1.11.43.07.82-.02,1.22-.2h0Z"/>
    <path class="cls-9" d="M186.61,208.65c-.76.42-1.69.3-2.26-.31-.57-.61-.56-1.35.06-1.92.47-.44,1.04-.64,1.7-.56.68.08,1.2.56,1.33,1.2.12.62-.19,1.24-.82,1.59h0ZM185.17,206.54c-.14.12-.3.23-.43.36-.26.27-.29.58-.1.88.24.38.6.58,1.06.56.47-.02.87-.21,1.08-.63.17-.34.12-.68-.13-.98-.34-.4-.91-.46-1.48-.19h0Z"/>
  </g>
  <g>
    <path class="cls-13" d="M336.86,230.63c2.42.15,4.84.3,7.26.45.62.04,1.3-.49,1.43-1.09.16-.69-.12-1.28-.68-1.68-2.01-1.45-4.02-2.91-6.04-4.36l-1.5,2.57c2.21,1.03,4.33,2.26,6.32,3.68,1.03.74,2.62-.49,2.18-1.68-.95-2.6-2.3-4.96-4.04-7.11-.49-.61-1.6-.55-2.1,0-.59.64-.53,1.46,0,2.1.11.14.22.27.33.41-.19-.25.07.09.08.12.18.25.36.49.53.75.33.49.64.99.93,1.5s.56,1.03.81,1.57c.06.12.11.24.16.36.04.08.07.16.1.24q-.06-.15,0,0c.11.28.22.57.33.85l2.18-1.68c-1.99-1.42-4.1-2.65-6.32-3.68-.7-.33-1.64-.22-2.03.53s-.14,1.55.53,2.03c2.01,1.45,4.02,2.91,6.04,4.36l.75-2.77c-2.42-.15-4.84-.3-7.26-.45-.78-.05-1.52.72-1.49,1.49.04.85.65,1.44,1.49,1.49h.01Z"/>
    <path class="cls-12" d="M344.89,230.86c-1.51-.07-3.01-.09-4.51-.23-1.4-.12-2.78-.4-3.95-1.19-.29-.19-.47-.53-.71-.8.3-.25.56-.61.89-.72.69-.23,1.42-.32,2.18-.47-.34-.44-.68-.84-.98-1.26-.2-.29-.37-.6-.51-.92-.25-.56-.06-.85.56-.77.85.11,1.68.31,2.53.48.11.02.22.06.26.08-.13-.72-.29-1.44-.36-2.18-.03-.36-.02-.89.21-1.08.37-.32.72.12,1.02.34,2.3,1.7,3.65,4,4.3,6.74.03.15.07.29.11.44,0,.01.02.02-.01,0,.71-.35,1.36-.79,2.07-1.01,1.81-.55,3.39-.14,4.72,1.11,4.96,4.64,9.92,9.28,14.87,13.92.39.37.79.73,1.18,1.11.4.38.47.84.2,1.23s-.73.5-1.26.27c-3.76-1.63-7.51-3.26-11.27-4.89-2.99-1.3-5.98-2.6-8.97-3.89-2.66-1.15-3.62-3.4-2.62-6.16.02-.06.04-.13.04-.14h.01ZM351.16,237.89c-.05-.29-.08-.46-.11-.62-.12-.91.02-1.77.61-2.53.12-.16.48-.3.64-.24.31.12.14.38.03.64-.22.5-.48,1.02-.5,1.54-.01.55.06,1.31.42,1.6.64.51,1.53.74,2.22,1.05.21-.67.38-1.27.59-1.86.1-.28.33-.5.65-.32.29.16.2.42.05.66-.32.53-.41,1.09-.31,1.68.02.12.08.29.18.33.96.43,1.92.85,2.83,1.24.16-.57.27-1.1.47-1.61.05-.14.36-.3.52-.27.3.05.28.3.19.57-.11.32-.19.66-.25.99-.09.5.1.79.6,1,2.61,1.1,5.2,2.24,7.8,3.37.16.07.32.12.49.18l.08-.12c-.13-.14-.26-.28-.4-.41-1.96-1.83-3.91-3.66-5.87-5.49-3.35-3.13-6.69-6.27-10.05-9.39-1.17-1.09-2.6-1.32-4.14-.73-1.47.56-2.31,1.66-2.59,3.16-.3,1.63.72,3.31,1.77,3.69-.04-.22-.08-.41-.1-.61-.13-1.19.05-2.32,1.01-3.21.12-.12.39-.08.59-.12-.01.21.07.49-.04.61-1.08,1.16-.9,2.42-.5,3.7.03.1.13.21.22.25.93.42,1.87.82,2.92,1.28h-.02ZM336.85,228.73c2.57,1.46,5.46,1.29,8.39,1.27-.52-2.92-1.78-5.31-4.15-7.06.18.91.45,1.79.73,2.66.08.25.3.54-.04.71-.17.09-.49,0-.68-.12-.86-.5-1.79-.79-2.94-.9.34.45.58.83.89,1.16.38.4.83.74,1.21,1.14.14.15.18.39.26.59-.2.06-.4.15-.6.18-.15.02-.3-.05-.46-.06-.88-.07-1.76-.06-2.61.43h0Z"/>
  </g>
  <g>
    <path class="cls-13" d="M161.9,266.11c-3.05-2.5-7.27-3.34-11.07-2.27-.88.25-1.36,1.54-.58,2.19,2.43,2,5.48,3.43,8.63,3.75,1.69.18,3.77-.78,3.58-2.77s-1.99-2.72-3.61-3.17-3.28-.64-4.93-.57c-.8.03-1.71.06-2.47.31-1.01.32-1.7,1.25-1.41,2.34.22.83.9,1.4,1.55,1.9.59.45,1.2.86,1.86,1.18,1.43.71,2.94,1.12,4.52,1.27.95.09,2.05.06,2.6-.85.69-1.12-.16-2.2-1.07-2.81-1.51-1.02-3.28-1.7-5.06-2.05-.69-.14-1.41.2-1.61.91-.18.64.22,1.47.91,1.61.88.17,1.75.42,2.57.77.42.18.82.39,1.22.62.2.11.39.23.58.35.37.24.06.12.08-.18l.18-.66s.33-.33.52-.28c-.06-.02-.19,0-.27,0-.22,0-.44-.02-.65-.04-.4-.04-.81-.11-1.26-.22-.81-.2-1.52-.46-2.23-.84-.37-.2-.73-.42-1.07-.66-.17-.12-.22-.16-.35-.27-.15-.13-.38-.46-.56-.52.25.1-.36.9-.29.93.07.04.37-.07.46-.09.47-.07.95-.1,1.42-.11.95-.03,1.91.03,2.85.2.85.16,1.81.35,2.53.78.12.07.25.16.29.2-.08-.08.14.15.06.07-.05-.05.03.07.04.1-.04-.15.02.17.02-.1,0,0,.07-.1.08-.08,0,.04-.2.1-.22.1-.7.2-1.74-.14-2.47-.34-1.87-.52-3.7-1.41-5.18-2.63l-.58,2.19c2.85-.8,6.26-.27,8.53,1.6.55.45,1.32.53,1.85,0,.46-.46.55-1.4,0-1.85h0Z"/>
    <g>
      <path class="cls-12" d="M160.8,271.26c-.07-.69-.14-1.34-.21-2.01-2.67,1.27-5,.35-7.17-1.2-.98-.7-1.85-1.57-2.75-2.39-.4-.36-.3-.78.19-.92,1.81-.52,3.64-.92,5.54-.84,1.81.08,3.37.73,4.61,2.16.18-.33.32-.65.51-.93.23-.33.46-.67.77-.91.14-.11.51-.09.66.03.11.08.13.5.02.62-1.6,1.75-1.46,3.84-1.17,5.96,0,.01.02.02.11.11.29-.23.62-.45.89-.72,1.78-1.77,3.96-2.53,6.44-2.25,3.39.38,5.91,2.11,7.21,5.31,1.97,4.86,1.74,9.67-.58,14.33-.45.9-1.15,1.7-1.85,2.43-.78.81-1.82,1.16-2.97.97-1.81-.3-3.33.21-4.58,1.5-1.16,1.2-2.58,1.43-4.15,1.03-1.9-.48-3.51-1.5-4.99-2.75-2.84-2.41-4.89-5.34-5.98-8.9-.99-3.26.18-7,2.8-8.96,1.09-.82,2.39-1.1,3.71-1.3.96-.14,1.92-.24,2.94-.36h0ZM175.79,274.21c-.15-.33-.33-.75-.53-1.15-2.16-4.42-8.4-5.62-11.78-2.12-.79.82-1.77,1.26-2.91,1.37-.92.09-1.83.19-2.74.33-1.44.22-2.82.6-3.83,1.76-2.03,2.34-2.53,4.99-1.48,7.91,1.06,2.95,2.82,5.44,5.19,7.51,1.39,1.21,2.91,2.23,4.73,2.73,1.3.36,2.43.17,3.43-.82.53-.52,1.18-.95,1.84-1.29,1.03-.53,2.16-.62,3.31-.43.9.15,1.71-.06,2.31-.71.6-.65,1.23-1.34,1.63-2.12,2.08-4.14,2.3-8.45.83-12.96h0ZM160.39,267.2c-.19-.65-.57-1.07-1.29-1.51-1.51-.92-3.14-.94-4.8-.68-.77.12-1.54.28-2.44.45,1.4,1.29,2.71,2.4,4.37,3.02.89.33,1.82.5,2.77.3.38-.08.74-.29,1.11-.44-.02-.05-.03-.1-.05-.16-.26-.07-.52-.15-.79-.22-1.01-.24-2.02-.47-3.03-.7-.3-.07-.52-.22-.47-.56.05-.36.31-.46.64-.42.16.02.32.06.48.1,1.15.27,2.3.54,3.51.83h0Z"/>
      <path class="cls-12" d="M175.44,276.8c.03,1.31.12,2.55.06,3.78-.11,2.18-.75,4.23-1.67,6.19-.15.33-.35.63-.77.42-.41-.2-.3-.55-.14-.87,1.28-2.68,1.86-5.49,1.54-8.47-.03-.26-.08-.51-.12-.76-.06-.32.05-.59.37-.61.21-.01.44.18.74.33h0Z"/>
      <path class="cls-12" d="M167.32,269.87c.24,0,.39-.01.53,0,2.02.11,3.79.87,5.37,2.13.28.22.41.49.16.78s-.53.2-.81-.02c-1.44-1.17-3.08-1.83-4.94-1.9-.31-.01-.57-.14-.56-.46,0-.18.17-.36.25-.52h0Z"/>
    </g>
  </g>
  <g>
    <path class="cls-13" d="M241.08,141.55c2.16,0,2.16-3.36,0-3.36s-2.16,3.36,0,3.36h0Z"/>
    <path class="cls-13" d="M225.45,135.36c5.7,1.07,11.39,2.14,17.09,3.21l-1-2.47c-1.2,2.16-3.82,1.15-5.73.75-2.83-.59-5.65-1.19-8.48-1.78l1,2.47c1.07-1.81,1.51-4.42-.7-5.62-.96-.52-2.2-.38-3,.36-.91.84-1.02,1.93-.54,3.03.36.83,1.58,1.02,2.3.6.86-.5.97-1.46.6-2.3l-.08-.18.23.85c-.04.27-.19.43-.45.49-.22.22-.47.24-.73.04,0,0-.02.05-.03.06-.17.13-.39.79-.5.98-.52.89-.07,2.24,1,2.47,3.38.71,6.76,1.42,10.14,2.13,1.51.32,3.08.61,4.58.08,1.39-.49,2.56-1.43,3.27-2.72.49-.88.1-2.26-1-2.47-5.7-1.07-11.39-2.14-17.09-3.21-.89-.17-1.81.25-2.06,1.17-.22.82.28,1.9,1.17,2.06h0Z"/>
    <g>
      <path class="cls-12" d="M225.47,135.92c-.22-.04-.43-.08-.63-.12-.64-.12-.95-.57-.86-1.21.08-.56.21-1.1.55-1.55.74-1,1.74-1.47,2.99-1.24,4.26.79,8.51,1.62,12.77,2.44.47.09.94.18,1.4.27,1.44.28,2.53,1.48,2.6,2.95.02.4-.04.8-.12,1.19-.1.47-.58.74-1.07.65-.23-.04-.46-.09-.7-.13,0,.05-.02.1-.03.14-.1.62-.2,1.24-.3,1.86,0,.07,0,.15.04.21.65,1.11,1.13,2.28,1.41,3.53.32,1.45.35,2.9.12,4.35-.64,3.92-1.28,7.84-1.91,11.76-.22,1.33-.43,2.67-.65,4-.2,1.23-1.19,2.23-2.4,2.44-.39.07-.78.07-1.17,0-4.48-.86-8.96-1.72-13.44-2.57-.97-.19-1.94-.37-2.91-.56-1.75-.33-2.88-1.94-2.6-3.69.64-3.95,1.29-7.9,1.93-11.84.21-1.28.42-2.56.63-3.84.22-1.39.69-2.7,1.4-3.9.64-1.09,1.45-2.04,2.43-2.84.14-.11.21-.23.24-.42.09-.62.2-1.23.3-1.87h-.02ZM241.58,156.6h0c.41-2.5.81-5.01,1.22-7.51.18-1.09.19-2.19.02-3.3-.21-1.39-.68-2.69-1.39-3.91-.06-.1-.13-.15-.24-.17-2.91-.55-5.82-1.11-8.72-1.67-2.23-.43-4.47-.85-6.7-1.28-.1-.02-.17,0-.25.06-.66.55-1.24,1.16-1.74,1.85-.92,1.27-1.53,2.69-1.8,4.25-.18,1.07-.35,2.14-.53,3.21-.69,4.22-1.38,8.45-2.06,12.67-.03.17-.04.34-.04.51.06,1.1.83,1.97,1.91,2.18,1.27.25,2.55.49,3.82.73,3.07.59,6.14,1.18,9.21,1.77,1.11.21,2.22.42,3.33.63,1.26.24,2.4-.55,2.61-1.8.16-.97.32-1.95.48-2.92.29-1.77.58-3.53.86-5.3h0ZM234.07,136.71h0c.94.18,1.87.36,2.81.54,1.64.31,3.29.63,4.93.94.46.09.92.17,1.38.26.11.02.18,0,.2-.12.06-.34.11-.69.06-1.04-.13-.92-.83-1.72-1.75-1.92-.76-.17-1.53-.3-2.3-.45-2.89-.55-5.78-1.11-8.67-1.66-1.09-.21-2.17-.43-3.26-.62-.96-.17-1.72.16-2.27.93-.24.34-.33.74-.38,1.15-.02.18,0,.21.17.24.51.1,1.01.19,1.52.29,2.52.48,5.05.97,7.57,1.45h0ZM241.56,139.01c-5.09-.97-10.17-1.95-15.25-2.92l-.3,1.85c5.09.97,10.16,1.95,15.25,2.92l.3-1.85Z"/>
      <path class="cls-12" d="M230.3,159.86c-2.75-.53-5.49-1.05-8.24-1.58-.51-.1-.82-.4-.9-.88-.02-.11,0-.22,0-.33.42-2.6.84-5.2,1.27-7.8.14-.84.27-1.68.41-2.52.1-.61.59-.93,1.22-.81,2.58.49,5.17.99,7.75,1.48,2.91.56,5.82,1.11,8.72,1.67.63.12.99.61.89,1.21-.45,2.78-.91,5.56-1.36,8.35-.11.65-.2,1.3-.31,1.94-.1.63-.58.96-1.23.83-2.63-.5-5.26-1.01-7.89-1.51-.12-.02-.23-.04-.35-.07h0l.02.02ZM223.86,146.91l-1.69,10.4c5.53,1.06,11.05,2.12,16.58,3.17.57-3.47,1.13-6.93,1.69-10.4-5.53-1.06-11.05-2.11-16.58-3.17Z"/>
    </g>
  </g>
  <g>
    <path class="cls-13" d="M383.07,201.88c.03,7.27.05,14.53.08,21.8,7.24.18,14.47.37,21.71.55.25-7.53-.97-15.33-.72-22.87-7.18-.06-12.89.15-20.07.09"/>
    <g>
      <path class="cls-12" d="M412.22,223.67c-1.5,1.4-3.01,2.8-4.6,4.28-.36,0-.84-.01-1.31-.02-8.5-.15-17-.29-25.5-.45-.45,0-.98.18-1.33-.39.02-12.15.05-24.35.07-36.5,1.55-1.46,3.08-2.9,4.67-4.4,5.14.09,10.39.18,15.63.27,3.73.07,7.46.13,11.19.2.41,0,.88-.15,1.25.36-.02,12.17-.05,24.41-.07,36.66h0ZM380.63,198.33c-.02,9.38-.04,18.62-.06,27.88,8.77.15,17.47.3,26.25.46v-.91c.01-8.93.02-17.87.03-26.8,0-.03-.04-.07-.06-.1-.03-.03-.06-.06-.08-.08-8.68-.15-17.35-.3-26.09-.46h0ZM380.87,197.03c8.71.15,17.32.3,25.96.45v-5.62c-.16-.03-.28-.08-.4-.08-8.54-.14-17.08-.28-25.62-.42-.04,0-.08.02-.11.04-.03.02-.06.06-.09.08,0,1.74-.01,3.48,0,5.22,0,.1.15.2.25.33h0ZM408.29,225.76c.13-.08.29-.14.4-.24.61-.61,1.15-1.3,1.83-1.82.58-.44.71-.94.71-1.58,0-8.47.03-16.93.04-25.4,0-.28-.04-.56-.06-.93-.76.3-1.12.88-1.62,1.29-.52.43-1.03.86-1.42,1.18-.02,9.24-.04,18.25-.05,27.25,0,.06.09.13.17.25ZM409.86,187.89c-8.44-.15-16.96-.3-25.33-.44-.96.87-1.83,1.68-2.75,2.51,1.12.26,21.77.7,25.24.58,1.04-.97,1.94-1.82,2.83-2.65h.01ZM408.23,191.41v4.98c1.01-.87,2.06-1.78,3.06-2.64,0-.87.02-1.66,0-2.45-.02-.8.08-1.6-.07-2.41-.2.04-.31.03-.36.07-.89.83-1.78,1.66-2.62,2.45h-.01Z"/>
      <polygon class="cls-1" points="402.51 222.51 384.55 222.19 384.58 203.62 402.55 203.93 402.51 222.51"/>
    </g>
  </g>
  <g>
    <path class="cls-13" d="M351.43,166.77c3.73.15,7.45.29,11.18.44.87.03,1.71-.79,1.67-1.67-.04-.93-.73-1.63-1.67-1.67-3.73-.15-7.45-.29-11.18-.44-.87-.03-1.71.79-1.67,1.67.04.93.73,1.63,1.67,1.67h0Z"/>
    <g>
      <path class="cls-16" d="M350.53,214.54c-.08-.18-.25-.15-.38-.21-1.44-.6-2.42-2.13-2.44-3.89-.04-4.78-.1-9.56-.07-14.33.03-5.27.87-10.36,2.26-15.31,1.1-3.9,1.61-7.94,1.73-12.07.01-.43-.04-.59-.45-.57-.71.03-.93-.27-.94-1.1,0-.66,0-1.32-.01-1.98-.02-1.2.44-2.02,1.39-2.45.06-.03.15-.02.16-.13,3.55.09,7.1.18,10.64.27.01.03.03.07.04.08,1.08.32,1.7,1.21,1.71,2.49,0,.69.01,1.39.01,2.08,0,.83-.22,1.1-.93,1.06-.35-.02-.47.05-.45.5.16,4.13.73,8.2,1.86,12.16,1.18,4.13,2.01,8.32,2.33,12.63.03.39-.04.8.15,1.17.03,5.6.07,11.19.1,16.79-.15.09-.12.28-.17.43-.36,1.23-1.07,2.06-2.11,2.52-.22.1-.47.06-.67.23-4.59-.12-9.19-.23-13.78-.35l.02-.02ZM360.71,166.76c.28,0,.55.04.83.03.41,0,1,.25,1.2-.07.21-.33.07-.97.06-1.48-.01-.54-.28-.85-.74-.87-.51-.02-1.02-.02-1.52-.03-2.72-.07-5.44-.15-8.15-.22-.47,0-.73.3-.74.83-.01.42.01.85,0,1.27,0,.24.06.32.27.32,2.94.06,5.87.13,8.81.2l-.02.02ZM359.33,168.39c-1.95-.06-3.9-.1-5.84-.18-.35,0-.45.06-.46.5-.08,4.36-.65,8.61-1.8,12.72-1.38,4.9-2.17,9.93-2.18,15.14,0,4.58.04,9.16.07,13.73.01,1.54.9,2.59,2.24,2.62,2.86.08,5.73.15,8.59.22,1.05.03,2.09.04,3.14.06.1,0,.2.01.3.03,1.61.2,2.52-1.13,2.49-2.81-.08-4.19-.07-8.38-.09-12.56-.03-4.81-.57-9.56-1.87-14.16-1.37-4.9-2.36-9.85-2.48-14.98,0-.26-.09-.31-.28-.31-.61,0-1.22-.02-1.83-.03h0Z"/>
      <path class="cls-15" d="M363.68,196.54c.19,0,.38.02.56.03.6.03.87.36.83,1.07-.07,1.31-.6,2.31-1.47,3.08-.01,0-.03,0-.04,0-.68.24-.99.76-1.15,1.61-.22,1.16-.66,2.24-.99,3.37-.21.71-.48,1.38-.5,2.17-.03.71-.39,1.29-.84,1.75-1.4,1.42-3.81,1.35-5.21-.16-.56-.6-.89-1.32-.88-2.21,0-.2-.05-.36-.11-.54-.48-1.54-1.02-3.06-1.42-4.62-.19-.76-.45-1.25-1.07-1.65-1.06-.69-1.57-1.87-1.65-3.26-.04-.65.24-.97.8-.96.84,0,1.69.04,2.53.06.14,0,.29.06.42-.04-.01-.18-.15-.25-.23-.36-.69-.91-1.06-1.96-1.1-3.16-.02-.55.25-.91.66-.92.41,0,.7.34.73.9.05.89.34,1.65.88,2.28.14.17.26.19.45.08,1.67-1,3.35-.96,5.04.12.21.14.33.11.48-.07.51-.59.79-1.3.83-2.15.03-.63.31-.98.75-.93.42.05.67.43.65,1.03-.05,1.17-.41,2.19-1.09,3.04-.07.09-.13.17-.2.26,0,0,0,.03-.02.1l2.37.06h-.01ZM361.27,200.93c-.12.02-.18.02-.23.03-2.71.75-4.76-2.16-4.27-4.63.07-.33-.1-.28-.26-.24-1.84.37-3.23,2.71-2.87,4.89.23,1.44.82,2.75,1.21,4.16,1.74-1.4,3.47-1.34,5.22.13.39-1.45.96-2.78,1.21-4.34h0ZM357.48,209.02c.63-.01,1.21-.16,1.68-.65.53-.55.53-1.26.01-1.85-.85-.97-2.61-1.01-3.43-.08-.49.56-.49,1.25.02,1.82.48.54,1.08.72,1.72.76h0ZM360.11,199.44c.22,0,.43,0,.64-.09.26-.09.3-.25.2-.53-.47-1.24-1.25-2.09-2.33-2.56-.23-.1-.36-.04-.44.27-.33,1.4.64,2.87,1.93,2.91h0ZM352.25,199.22c.12-.44.23-.87.34-1.29l-1.31-.03c.18.61.52,1.01.97,1.32h0ZM362.23,198.17c.12.45.24.87.36,1.31.45-.3.78-.67.95-1.27l-1.31-.03h0Z"/>
    </g>
  </g>
  <g>
    <path class="cls-14" d="M333.14,145.03c.07.02.21.06.42.16l109.89,64.12s.09.05.13.07c.55.28.88.86.86,1.47l-10.03,246.29c-.04.96-.84,1.53-1.59,1.53-.27,0-.53-.07-.78-.21l-99.77-56.81c-3.83-2.18-6.19-6.27-6.16-10.66l2.32-230.59c.04-4.46,1.04-8.82,2.89-12.61,1.03-2.12,1.63-2.64,1.81-2.76M333.09,142.02c-1.73,0-3.04,1.56-4.45,4.46-2.11,4.32-3.15,9.09-3.2,13.89l-2.32,230.59c-.03,5.49,2.9,10.57,7.67,13.29l99.77,56.81c.73.42,1.51.61,2.26.61,2.33,0,4.48-1.81,4.59-4.4l10.03-246.29c.07-1.78-.89-3.44-2.48-4.26l-109.97-64.16c-.7-.36-1.33-.54-1.91-.54h.01Z"/>
    <path class="cls-14" d="M510.88,182.13c.02.21.02.42.01.65l-8.44,239.51c-.01.4-.23.76-.58.96l-59.71,35.08c-.19.11-.38.17-.59.17-.31,0-.64-.14-.86-.38-.22-.23-.32-.51-.31-.85l10.03-246.71c.02-.45.29-.85.7-1.03.02,0,.04-.02.06-.03l58.86-27.01c.29-.13.56-.25.81-.38M512.02,178.35c-.77,0-1.75.81-3.17,1.43l-58.89,27.02c-1.47.63-2.45,2.06-2.51,3.66l-10.03,246.71c-.1,2.51,1.94,4.35,4.17,4.35.7,0,1.42-.18,2.11-.58l59.71-35.08c1.23-.72,2-2.02,2.05-3.44l8.44-239.51c.04-1.12-.12-2.24-.56-3.27-.4-.93-.81-1.26-1.31-1.26h0v-.03Z"/>
    <g>
      <path class="cls-11" d="M448.61,208.17c-.49,0-.99-.12-1.43-.34l-113.85-57.35c-2-1.01-2.55-2.88-2.39-4.29.16-1.42,1.12-3.13,3.31-3.67l72.8-17.81c1.45-.36,2.95-.54,4.45-.54,3.25,0,6.45.84,9.26,2.44l89.38,50.85c1.01.58,1.58,1.59,1.51,2.71-.07,1.12-.74,2.05-1.81,2.5l-60.01,25.25c-.39.16-.8.25-1.22.25h0Z"/>
      <path class="cls-14" d="M411.5,125.74c2.98,0,5.91.77,8.49,2.24l89.38,50.85c.67.38.74.95.72,1.26-.02.3-.15.86-.86,1.16l-60.01,25.25c-.19.08-.4.12-.62.12-.25,0-.5-.06-.73-.17l-113.85-57.35c-1.62-.82-1.59-2.29-1.54-2.72.05-.44.35-1.89,2.13-2.33l72.8-17.81c1.33-.33,2.7-.49,4.08-.49M411.5,122.62c-1.61,0-3.23.19-4.82.58l-72.8,17.81c-5.37,1.31-6.19,8.39-1.26,10.87l113.85,57.35c.67.34,1.4.5,2.13.5.62,0,1.24-.12,1.83-.37l60.01-25.25c3.47-1.46,3.74-6.14.47-8l-89.38-50.85c-3.07-1.75-6.54-2.65-10.03-2.65h0Z"/>
    </g>
    <rect class="cls-11" x="315.54" y="260.79" width="24.87" height="64.35" rx="11.22" ry="11.22"/>
    <rect class="cls-11" x="310.54" y="316.79" width="24.87" height="93.35" rx="11.22" ry="11.22"/>
    <g>
      <g>
        <path class="cls-13" d="M144.26,333.82c-5.85,13.72-8.94,28.16-9.24,43.07-.05,2.33,2.91,2.79,4.09,1.11,2.52-3.58,5.07-7.14,7.6-10.71,1.22-1.72,2.45-3.44,3.66-5.16,1.13-1.6,2.4-3.17,3.12-5.01s.53-3.75.45-5.71c-.06-1.53.12-3.03.63-4.48.94-2.65,3.05-4.33,5.56-5.43,1.93-.84,1.01-3.42-.52-4.02-2.19-.85-4.37-1.74-6.57-2.56s-4.36-.94-6.29.69c-1.44,1.21-2.2,3.03-3,4.69-.97,2.02-1.86,4.09-2.68,6.18-3.14,8.07-4.8,16.59-5.4,25.21-.17,2.44,3.94,3.05,4.32.58,1.82-11.88,5.77-23.09,11.98-33.38l-4.02-1.69c-4.34,10.95-7.54,22.29-9.6,33.89-.49,2.74,3.45,3.93,4.24,1.17,1.63-5.74,3.36-11.46,5.25-17.12.92-2.75,1.89-5.49,2.89-8.22.87-2.35,1.6-4.81,3.6-6.47l-3.67-2.14c-1.95,7.4-4.39,14.68-7.37,21.73-.46,1.09-.33,2.35.79,3.01.92.54,2.54.31,3.01-.79,3.13-7.41,5.77-15,7.81-22.78.59-2.25-2.05-3.48-3.67-2.14-2.14,1.77-3.18,4.28-4.14,6.81-1.11,2.95-2.17,5.91-3.18,8.89-2.02,5.96-3.85,11.98-5.56,18.03l4.24,1.17c2.07-11.59,5.26-22.94,9.6-33.89.94-2.37-2.77-3.76-4.02-1.69-6.39,10.59-10.56,22.21-12.42,34.43l4.32.58c.52-7.51,1.95-14.91,4.49-22.01.62-1.74,1.3-3.46,2.06-5.14s1.43-3.49,2.47-4.97c.25-.35.57-.81,1.03-.89.78-.14,1.94.56,2.64.82,1.91.72,3.8,1.5,5.7,2.23l-.52-4.02c-2.91,1.27-5.49,3.44-6.87,6.34-.66,1.39-1.09,2.82-1.31,4.34-.29,2.03.13,4.01-.07,6.02-.19,1.87-1.61,3.42-2.65,4.9-1.26,1.79-2.53,3.58-3.8,5.36-2.63,3.7-5.27,7.39-7.89,11.11l4.09,1.11c.28-14.08,3.11-27.88,8.64-40.85.46-1.09.33-2.35-.79-3.01-.92-.54-2.54-.31-3.01.79h0l-.02.02Z"/>
        <path class="cls-13" d="M152.51,358.24c2.83,0,2.83-4.39,0-4.39s-2.83,4.39,0,4.39h0Z"/>
      </g>
      <path class="cls-14" d="M147.37,332.54c.34.19.49.61.3,1.01-.04.09-.04.08-.18.26s-.5.48-.78.69c-.56.42-1.24.61-1.83,1.11-1.66,1.39-2.27,3.44-2.76,5.54-.35,1.5-.64,3.09-.96,4.57-1.45,6.84-2.61,14.46-3.29,21.22-.38,3.87-.87,9.4-.61,12.04.2,1.99,0-.36.04.45.03.81-.46.83-1.03.59-.57-.25-1.22-1.04-1.51-1.77-.43-1.08-.59-2.33-.62-3.54-.31-11.53.67-22.7,3.35-33.91.73-3.06,1.6-5.84,2.85-8.7.65-1.5,2.22-1.94,3.64-1.33,1.15.49,2.27,1.16,3.37,1.78h.02Z"/>
      <g>
        <g>
          <path class="cls-13" d="M230.31,449.07c5.29,12.38,12.78,23.24,22.66,32.4,2.93,2.71,6.95-1.38,4.35-4.35-5.49-6.25-6.99-13.22-5.2-21.29.23-1.02.06-2.27-.79-2.99-2.54-2.17-4.07-4.54-4.52-7.91-.28-2.06-1.74-3.4-3.89-2.97-2.69.54-5.38,1.08-8.07,1.63-2.46.5-2.72,3.51-1.36,5.14,4.27,5.11,7.66,10.74,10.2,16.9,1.49,3.61,7.44,2.03,5.93-1.64-2.97-7.21-6.78-13.63-11.78-19.61l-1.36,5.14c2.69-.55,5.38-1.09,8.07-1.63l-3.89-2.97c.67,5.01,2.43,8.94,6.32,12.26l-.79-2.99c-2.28,10.28-.19,19.32,6.78,27.27l4.35-4.35c-9.53-8.84-16.6-19.22-21.7-31.16-1.55-3.63-6.85-.5-5.31,3.1h0v.02Z"/>
          <path class="cls-13" d="M241.24,453.92c3.96,0,3.96-6.15,0-6.15s-3.96,6.15,0,6.15h0Z"/>
          <path class="cls-13" d="M250.52,458.65c3.96,0,3.96-6.15,0-6.15s-3.96,6.15,0,6.15h0Z"/>
          <path class="cls-13" d="M236.12,464.52c2.63,6.78,6.98,11.98,13.54,15.25,3.53,1.76,6.65-3.54,3.1-5.31-5.06-2.53-8.65-6.27-10.72-11.57-1.42-3.65-7.37-2.06-5.93,1.64h0Z"/>
        </g>
        <path class="cls-2" d="M246.61,385.68c-.06-.29-.13-.58-.19-.87"/>
        <path class="cls-5" d="M246.64,385.68c8.28-3,15.86-6.48,22.14-12.89,3.73-3.82,8.18-9.35,11.15-12.76,8.19-9.4,14.62-16.27,20.65-26.73.97,4.7.87,9,1.08,13.83.33,7.85-1.17,16.34-2.73,23.95-2.06,10.05-4.18,19.31-9.06,28.12-1.65,2.98-3.44,5.3-5.66,7.76-8.47,9.41-18.14,15.95-29.48,21.07"/>
        <path class="cls-14" d="M230.89,444.35c.35-.12.69.07.82.45.03.09.03.08.05.3s0,.67-.05,1.01c-.09.68-.4,1.3-.48,2.04-.21,2.1.65,3.89,1.67,5.67.73,1.27,1.5,2.46,2.26,3.72,2.19,6.78,5.2,13.48,10.23,18.31,3.02,2.9,5.11,4.66,9.06,5.62.61.15,1.35.19,2.01.4.13.04.33-.03.49.16s-.35.22-.54.23c-.79.04-1.61.11-2.41.11-1.11,0-2.25.06-3.33-.15-1.73-.34-3.36-1.2-4.77-2.17-1.4-.97-2.57-1.94-3.7-3.14-2.36-2.48-4.28-5.17-6.07-8.11-1.79-2.94-3.38-6.02-5-9.06-.5-.94-1.01-1.86-1.5-2.81-1.33-2.55-2.65-5.05-3.58-7.82-.48-1.45.21-2.88,1.55-3.52,1.08-.52,2.17-.87,3.29-1.25h0Z"/>
        <path class="cls-5" d="M384.19,298.11c.01.12,0,.36,0,.47-.2,2-1.31,3.37-3.23,3.89-3.61.97-5.35,1.43-9.89,1.3-.77-.02-4.36-3.05-6.94-4.07-4.03-1.59-11.27-1.51-15.6,1.39-1.66,1.11-2.97,2.33-4.21,3.85-.11.14-.21.27-.32.43-.11.16-.23.29-.35.48-3.72,6.16-4.48,12.32-3.78,19.45-1.75.14-3.21.31-5,.38-5.12.2-9.85.21-15.09-.52-10.12-1.41-20.83-3.7-30.54-6.84-7.43-2.41-14.07-4.7-21.01-8.15,7.59-10.38,14.33-21.43,23.47-30.55,11.54-11.51,25.75-19.73,41.56-20.35,24.65-.97,47.82,12.31,50.94,38.83h0Z"/>
        <path class="cls-6" d="M254.71,428.01c-2.13.85-4.29,1.61-6.48,2.28"/>
        <path class="cls-6" d="M248.02,430.3c9.26,7.89,14.86,17.11,17.23,29.37"/>
        <path class="cls-6" d="M339.44,326.31c2.5,24.01,1.33,48.09-3.93,71.67-1.17,5.26-2.39,10.25-4.66,15.08-6.43,13.63-17.83,21.86-29.72,29.64-11.9,7.78-22.26,13.9-35.9,17"/>
        <path class="cls-6" d="M339.23,325.7c-1.45,0-2.9,0-4.35-.01"/>
        <g>
          <path class="cls-6" d="M159.87,370.39c2.05-2.41,3.99-5.06,5.27-7.98,3.88-8.85,6.36-18.08,9.19-27.29.03-.09.07-.3.15-.29,17.21,9.84,36.07,17.2,56.01,12.73,18.36-4.12,33.73-17.76,38.18-36.65"/>
          <path class="cls-6" d="M159.9,370.43c5.11,3.94,11.53,7.79,17.31,10.11,15.54,6.25,30.06,9.38,46.62,9.04,7.7-.16,15.32-1.86,22.78-3.86"/>
          <g>
            <path class="cls-6" d="M171.16,345.35c-2.2-.45-4.62-.99-6.57-2.06-1.49-.82-2.66-1.83-4.31-1.69-.98.08-1.69.49-2.36,1.23-3.54,3.89-3.92,8.58-2.59,13.57.16.6.43,1.13.83,1.58.4.45.93.71,1.48.95,2.51,1.11,5.05,1.8,7.77,2.14"/>
            <path class="cls-6" d="M155.57,356.35c-.07.09-.11.15-.18.24-5.09,6.83-10.01,13.86-15.04,20.73-.83,1.13-1.65,1.99-3.03,2.14"/>
            <path class="cls-6" d="M147.51,333.77c.12.03.24.05.36.09,4.46,1.12,8.64,2.7,12.74,4.83.51.27,1.05.6,1.27,1.17s-.13,1.21-.73,1.17"/>
          </g>
        </g>
        <path class="cls-6" d="M254.21,436.41c-2.56,1.16-4.95,2.5-7.26,4.13-.24.17-.47.32-.62.62-.15.29-.21.62-.19,1,.29,5.02,2.34,8.73,6.41,11.44.5.33.97.48,1.52.51s1.13-.27,1.57-.49c2.23-1.14,4.28-2.46,6.49-3.59"/>
        <path class="cls-6" d="M245.41,441.83c-4.56.3-8.79,1.63-12.94,3.61-.26.12-.41.27-.58.47s0,0,0,0c-.17.2-.59,1.05-.47,1.52,1.21,4.74,2.6,9.45,4.49,13.96,1,2.38,2.02,4.83,3.32,6.99,1.29,2.16,2.67,3.9,4.27,5.8,1.6,1.9,3.09,3.74,5.18,5.24,2.08,1.5,4.75,2.07,7.31,2.17.18,0,.33-.02.5-.07.97-.27,1.82-.72,2.63-1.32-.93-1.88-2.51-2.91-3.85-4.45-2.52-2.87-3.99-6-4.28-9.94s.69-7.67,2.76-10.97"/>
      </g>
    </g>
    <g>
      <path class="cls-8" d="M433.73,464.43l-86.23,60.66c-1.12.79-2.64-.05-2.61-1.44l5.36-254.4c.07-3.28,1.86-6.27,4.72-7.88l89.82-50.51c1.14-.64,2.52.23,2.47,1.56l-9.58,244.77c-.11,2.89-1.57,5.57-3.94,7.24h-.01Z"/>
      <path class="cls-14" d="M370.62,341.03c8.36,16.26,11.27,35.34,8.23,53.37-.87,5.17-2.22,10.24-4,15.17-.46,1.27.52,2.74,1.75,3.08,1.39.38,2.61-.47,3.08-1.75,6.6-18.19,7.03-38.53,1.48-57.05-1.59-5.29-3.68-10.43-6.2-15.34-1.47-2.86-5.79-.34-4.32,2.52h-.02Z"/>
    </g>
    <path class="cls-10" d="M327.26,203.14c20.81,13.53,42.55,25.57,65,36"/>
    <path class="cls-10" d="M326.26,236.14c13,6.33,26,12.67,39,19"/>
  </g>
  <path class="cls-4" d="M251.13,273.37c-20.54-2.75-39.37-3.73-61.7.38"/>
  <path class="cls-7" d="M268.26,244.14c-12.89-8.19-25.5-16.5-40.45-20.38"/>
  <path class="cls-3" d="M252.4,162.33c25.89,15.37,44.65,42.25,50.13,71.85"/>
</svg>